# xmcd CD database file
#
# Track frame offsets:
#	150
#	34060
#	60200
#	97767
#	133582
#	164582
#	183830
#	212262
#	231975
#
# Disc length: 3561 seconds
#
# Revision: 1
# Processed by: cddbd v1.5.1PL0 Copyright (c) Steve Scherf et al.
# Submitted via: CDex 1.51
#
DISCID=690de709
DTITLE=Nini Tempo - Live at Cicada
DYEAR=1995
DGENRE=Jazz
TTITLE0=Birthday Blues
TTITLE1=Sweet adn Lovely
TTITLE2=Way to go
TTITLE3=I'm getting sentimental over you
TTITLE4=Some like it cool
TTITLE5=Deep Purple
TTITLE6=On Green dolphin street
TTITLE7=Lover Man
TTITLE8=Just friends
EXTD=YEAR: 1995
EXTT0=
EXTT1=
EXTT2=
EXTT3=
EXTT4=
EXTT5=
EXTT6=
EXTT7=
EXTT8=
PLAYORDER=
